<?xml version="1.0" encoding="UTF-8" standalone="no"?>
<svg width="952px" height="435px" viewBox="0 0 952 435" version="1.1" xmlns="http://www.w3.org/2000/svg" xmlns:xlink="http://www.w3.org/1999/xlink" xmlns:sketch="http://www.bohemiancoding.com/sketch/ns">
    <title>cost-of-responsive</title>
    <description>Created with Sketch (http://www.bohemiancoding.com/sketch)</description>
    <defs></defs>
    <g id="Page 1" stroke="none" stroke-width="1" fill="none" fill-rule="evenodd">
        <path d="M36,2.5 L36,385.807983" id="Line" stroke="#9B9B9B" stroke-width="4" stroke-linecap="square"></path>
        <path d="M949.5,387 L35.5,387" id="Line" stroke="#9B9B9B" stroke-width="4" stroke-linecap="square"></path>
        <path d="M84.5,63.5 L348.5,98.5 L582.175781,250.875 L886.53125,321.617188" id="Line" stroke="#3892E3" stroke-width="4" stroke-linecap="square"></path>
        <path d="M-6.544,185.288 C-11.152,185.288 -14.776,181.928 -14.776,177.008 C-14.776,172.088 -11.152,168.728 -6.544,168.728 C-3.712,168.728 -1.744,170.072 -0.472,171.896 L-2.128,172.832 C-3.04,171.464 -4.72,170.504 -6.544,170.504 C-10.048,170.504 -12.712,173.168 -12.712,177.008 C-12.712,180.8 -10.048,183.512 -6.544,183.512 C-4.72,183.512 -3.04,182.528 -2.128,181.184 L-0.448,182.096 C-1.792,183.944 -3.712,185.288 -6.544,185.288 Z M7.088,185.288 C3.56,185.288 1.352,182.552 1.352,179.192 C1.352,175.832 3.56,173.12 7.088,173.12 C10.616,173.12 12.824,175.832 12.824,179.192 C12.824,182.552 10.616,185.288 7.088,185.288 Z M7.088,183.68 C9.56,183.68 10.928,181.568 10.928,179.192 C10.928,176.84 9.56,174.728 7.088,174.728 C4.616,174.728 3.248,176.84 3.248,179.192 C3.248,181.568 4.616,183.68 7.088,183.68 Z M19.448,185.288 C17.528,185.288 15.944,184.688 14.768,183.464 L15.68,182.168 C16.448,183.056 17.912,183.824 19.496,183.824 C21.272,183.824 22.256,182.984 22.256,181.832 C22.256,179.024 15.08,180.752 15.08,176.456 C15.08,174.632 16.616,173.12 19.376,173.12 C21.368,173.12 22.76,173.864 23.672,174.8 L22.832,176.048 C22.136,175.208 20.888,174.584 19.376,174.584 C17.792,174.584 16.808,175.376 16.808,176.408 C16.808,178.928 23.984,177.272 23.984,181.784 C23.984,183.728 22.424,185.288 19.448,185.288 Z M29.864,185.288 C28.136,185.288 27.272,184.304 27.272,182.576 L27.272,174.992 L25.352,174.992 L25.352,173.408 L27.272,173.408 L27.272,170.24 L29.096,170.24 L29.096,173.408 L31.448,173.408 L31.448,174.992 L29.096,174.992 L29.096,182.192 C29.096,183.056 29.48,183.68 30.248,183.68 C30.776,183.68 31.232,183.44 31.472,183.176 L32,184.544 C31.544,184.976 30.896,185.288 29.864,185.288 Z M29.864,185.288" id="Cost" fill="#000000" transform="translate(8.696000, 177.008000) rotate(-90.000000) translate(-8.696000, -177.008000) "></path>
        <path d="M160.736,430 L162.2,425.656 L159.536,425.656 L158.096,430 L156.608,430 L158.072,425.656 L155.528,425.656 L155.936,424.384 L158.504,424.384 L160.088,419.608 L157.496,419.608 L157.88,418.36 L160.52,418.36 L161.96,413.992 L163.448,413.992 L162.008,418.36 L164.648,418.36 L166.088,413.992 L167.552,413.992 L166.088,418.36 L168.656,418.36 L168.296,419.608 L165.68,419.608 L164.072,424.384 L166.736,424.384 L166.352,425.656 L163.64,425.656 L162.2,430 Z M162.608,424.384 L164.216,419.608 L161.576,419.608 L159.968,424.384 Z M182.264,430.288 C178.736,430.288 176.528,427.552 176.528,424.192 C176.528,420.832 178.736,418.12 182.264,418.12 C185.792,418.12 188,420.832 188,424.192 C188,427.552 185.792,430.288 182.264,430.288 Z M182.264,428.68 C184.736,428.68 186.104,426.568 186.104,424.192 C186.104,421.84 184.736,419.728 182.264,419.728 C179.792,419.728 178.424,421.84 178.424,424.192 C178.424,426.568 179.792,428.68 182.264,428.68 Z M191.432,430 L191.432,419.992 L189.512,419.992 L189.512,418.408 L191.432,418.408 L191.432,417.52 C191.432,415.144 192.752,413.752 194.792,413.752 C195.728,413.752 196.52,413.968 197.24,414.64 L196.496,415.792 C196.112,415.456 195.656,415.24 195.08,415.24 C193.88,415.24 193.232,416.032 193.232,417.52 L193.232,418.408 L195.584,418.408 L195.584,419.992 L193.232,419.992 L193.232,430 Z M209.072,430.288 C205.616,430.288 203.288,427.624 203.288,424.192 C203.288,420.76 205.616,418.12 209.072,418.12 C211.184,418.12 212.432,418.984 213.32,420.136 L212.12,421.216 C211.352,420.16 210.368,419.728 209.168,419.728 C206.72,419.728 205.16,421.624 205.16,424.192 C205.16,426.76 206.72,428.68 209.168,428.68 C210.368,428.68 211.352,428.2 212.12,427.168 L213.32,428.272 C212.432,429.424 211.184,430.288 209.072,430.288 Z M220.928,430.288 C217.4,430.288 215.192,427.552 215.192,424.192 C215.192,420.832 217.4,418.12 220.928,418.12 C224.456,418.12 226.664,420.832 226.664,424.192 C226.664,427.552 224.456,430.288 220.928,430.288 Z M220.928,428.68 C223.4,428.68 224.768,426.568 224.768,424.192 C224.768,421.84 223.4,419.728 220.928,419.728 C218.456,419.728 217.088,421.84 217.088,424.192 C217.088,426.568 218.456,428.68 220.928,428.68 Z M243.584,430 L243.584,422.128 C243.584,420.664 242.96,419.728 241.448,419.728 C240.248,419.728 238.976,420.568 238.376,421.504 L238.376,430 L236.576,430 L236.576,422.128 C236.576,420.664 235.976,419.728 234.44,419.728 C233.264,419.728 232.016,420.592 231.392,421.528 L231.392,430 L229.592,430 L229.592,418.408 L231.392,418.408 L231.392,420.088 C231.896,419.344 233.432,418.12 235.16,418.12 C236.912,418.12 237.92,419.08 238.256,420.28 C238.904,419.224 240.464,418.12 242.144,418.12 C244.256,418.12 245.384,419.296 245.384,421.624 L245.384,430 Z M254.696,430.288 C253.112,430.288 251.744,429.52 250.784,428.248 L250.784,434.416 L248.984,434.416 L248.984,418.408 L250.784,418.408 L250.784,420.136 C251.624,418.96 253.064,418.12 254.696,418.12 C257.744,418.12 259.856,420.424 259.856,424.192 C259.856,427.936 257.744,430.288 254.696,430.288 Z M254.24,428.68 C256.568,428.68 257.96,426.76 257.96,424.192 C257.96,421.624 256.568,419.728 254.24,419.728 C252.824,419.728 251.408,420.568 250.784,421.576 L250.784,426.808 C251.408,427.816 252.824,428.68 254.24,428.68 Z M262.712,430 L262.712,413.992 L264.512,413.992 L264.512,430 Z M273.368,430.288 C269.912,430.288 267.44,427.816 267.44,424.192 C267.44,420.832 269.84,418.12 273.152,418.12 C276.656,418.12 278.72,420.856 278.72,424.336 L278.72,424.792 L269.36,424.792 C269.504,426.976 271.016,428.8 273.512,428.8 C274.856,428.8 276.176,428.272 277.112,427.312 L277.976,428.488 C276.8,429.64 275.24,430.288 273.368,430.288 Z M276.944,423.448 C276.92,421.744 275.768,419.608 273.128,419.608 C270.656,419.608 269.432,421.696 269.336,423.448 Z M284.576,430.288 C282.848,430.288 281.984,429.304 281.984,427.576 L281.984,419.992 L280.064,419.992 L280.064,418.408 L281.984,418.408 L281.984,415.24 L283.808,415.24 L283.808,418.408 L286.16,418.408 L286.16,419.992 L283.808,419.992 L283.808,427.192 C283.808,428.056 284.192,428.68 284.96,428.68 C285.488,428.68 285.944,428.44 286.184,428.176 L286.712,429.544 C286.256,429.976 285.608,430.288 284.576,430.288 Z M293.936,430.288 C290.48,430.288 288.008,427.816 288.008,424.192 C288.008,420.832 290.408,418.12 293.72,418.12 C297.224,418.12 299.288,420.856 299.288,424.336 L299.288,424.792 L289.928,424.792 C290.072,426.976 291.584,428.8 294.08,428.8 C295.424,428.8 296.744,428.272 297.68,427.312 L298.544,428.488 C297.368,429.64 295.808,430.288 293.936,430.288 Z M297.512,423.448 C297.488,421.744 296.336,419.608 293.696,419.608 C291.224,419.608 290,421.696 289.904,423.448 Z M310.592,430 L310.592,428.272 C309.728,429.448 308.312,430.288 306.68,430.288 C303.656,430.288 301.52,427.984 301.52,424.216 C301.52,420.496 303.656,418.12 306.68,418.12 C308.24,418.12 309.656,418.888 310.592,420.16 L310.592,413.992 L312.392,413.992 L312.392,430 Z M307.136,428.68 C308.552,428.68 309.968,427.84 310.592,426.832 L310.592,421.6 C309.968,420.592 308.552,419.728 307.136,419.728 C304.784,419.728 303.392,421.648 303.392,424.216 C303.392,426.784 304.784,428.68 307.136,428.68 Z M322.208,430 L322.208,418.408 L324.008,418.408 L324.008,420.256 C324.944,419.056 326.288,418.144 327.872,418.144 L327.872,419.992 C327.656,419.968 327.44,419.944 327.176,419.944 C326.048,419.944 324.536,420.856 324.008,421.792 L324.008,430 Z M335.384,430.288 C331.928,430.288 329.456,427.816 329.456,424.192 C329.456,420.832 331.856,418.12 335.168,418.12 C338.672,418.12 340.736,420.856 340.736,424.336 L340.736,424.792 L331.376,424.792 C331.52,426.976 333.032,428.8 335.528,428.8 C336.872,428.8 338.192,428.272 339.128,427.312 L339.992,428.488 C338.816,429.64 337.256,430.288 335.384,430.288 Z M338.96,423.448 C338.936,421.744 337.784,419.608 335.144,419.608 C332.672,419.608 331.448,421.696 331.352,423.448 Z M347.336,430.288 C345.416,430.288 343.832,429.688 342.656,428.464 L343.568,427.168 C344.336,428.056 345.8,428.824 347.384,428.824 C349.16,428.824 350.144,427.984 350.144,426.832 C350.144,424.024 342.968,425.752 342.968,421.456 C342.968,419.632 344.504,418.12 347.264,418.12 C349.256,418.12 350.648,418.864 351.56,419.8 L350.72,421.048 C350.024,420.208 348.776,419.584 347.264,419.584 C345.68,419.584 344.696,420.376 344.696,421.408 C344.696,423.928 351.872,422.272 351.872,426.784 C351.872,428.728 350.312,430.288 347.336,430.288 Z M360.512,430.288 C358.928,430.288 357.56,429.52 356.6,428.248 L356.6,434.416 L354.8,434.416 L354.8,418.408 L356.6,418.408 L356.6,420.136 C357.44,418.96 358.88,418.12 360.512,418.12 C363.56,418.12 365.672,420.424 365.672,424.192 C365.672,427.936 363.56,430.288 360.512,430.288 Z M360.056,428.68 C362.384,428.68 363.776,426.76 363.776,424.192 C363.776,421.624 362.384,419.728 360.056,419.728 C358.64,419.728 357.224,420.568 356.6,421.576 L356.6,426.808 C357.224,427.816 358.64,428.68 360.056,428.68 Z M373.592,430.288 C370.064,430.288 367.856,427.552 367.856,424.192 C367.856,420.832 370.064,418.12 373.592,418.12 C377.12,418.12 379.328,420.832 379.328,424.192 C379.328,427.552 377.12,430.288 373.592,430.288 Z M373.592,428.68 C376.064,428.68 377.432,426.568 377.432,424.192 C377.432,421.84 376.064,419.728 373.592,419.728 C371.12,419.728 369.752,421.84 369.752,424.192 C369.752,426.568 371.12,428.68 373.592,428.68 Z M390.104,430 L390.104,422.416 C390.104,420.352 389.048,419.728 387.488,419.728 C386.072,419.728 384.752,420.592 384.056,421.528 L384.056,430 L382.256,430 L382.256,418.408 L384.056,418.408 L384.056,420.088 C384.872,419.104 386.456,418.12 388.208,418.12 C390.608,418.12 391.88,419.344 391.88,421.864 L391.88,430 Z M399.2,430.288 C397.28,430.288 395.696,429.688 394.52,428.464 L395.432,427.168 C396.2,428.056 397.664,428.824 399.248,428.824 C401.024,428.824 402.008,427.984 402.008,426.832 C402.008,424.024 394.832,425.752 394.832,421.456 C394.832,419.632 396.368,418.12 399.128,418.12 C401.12,418.12 402.512,418.864 403.424,419.8 L402.584,421.048 C401.888,420.208 400.64,419.584 399.128,419.584 C397.544,419.584 396.56,420.376 396.56,421.408 C396.56,423.928 403.736,422.272 403.736,426.784 C403.736,428.728 402.176,430.288 399.2,430.288 Z M407.576,416.752 C406.904,416.752 406.352,416.224 406.352,415.552 C406.352,414.88 406.904,414.328 407.576,414.328 C408.248,414.328 408.776,414.88 408.776,415.552 C408.776,416.224 408.248,416.752 407.576,416.752 Z M406.664,430 L406.664,418.408 L408.464,418.408 L408.464,430 Z M415.16,430 L410.336,418.408 L412.304,418.408 L416.144,427.912 L420.008,418.408 L421.952,418.408 L417.128,430 Z M429.08,430.288 C425.624,430.288 423.152,427.816 423.152,424.192 C423.152,420.832 425.552,418.12 428.864,418.12 C432.368,418.12 434.432,420.856 434.432,424.336 L434.432,424.792 L425.072,424.792 C425.216,426.976 426.728,428.8 429.224,428.8 C430.568,428.8 431.888,428.272 432.824,427.312 L433.688,428.488 C432.512,429.64 430.952,430.288 429.08,430.288 Z M432.656,423.448 C432.632,421.744 431.48,419.608 428.84,419.608 C426.368,419.608 425.144,421.696 425.048,423.448 Z M449.264,430.288 C447.68,430.288 446.312,429.52 445.352,428.248 L445.352,434.416 L443.552,434.416 L443.552,418.408 L445.352,418.408 L445.352,420.136 C446.192,418.96 447.632,418.12 449.264,418.12 C452.312,418.12 454.424,420.424 454.424,424.192 C454.424,427.936 452.312,430.288 449.264,430.288 Z M448.808,428.68 C451.136,428.68 452.528,426.76 452.528,424.192 C452.528,421.624 451.136,419.728 448.808,419.728 C447.392,419.728 445.976,420.568 445.352,421.576 L445.352,426.808 C445.976,427.816 447.392,428.68 448.808,428.68 Z M457.28,430 L457.28,418.408 L459.08,418.408 L459.08,420.256 C460.016,419.056 461.36,418.144 462.944,418.144 L462.944,419.992 C462.728,419.968 462.512,419.944 462.248,419.944 C461.12,419.944 459.608,420.856 459.08,421.792 L459.08,430 Z M470.264,430.288 C466.736,430.288 464.528,427.552 464.528,424.192 C464.528,420.832 466.736,418.12 470.264,418.12 C473.792,418.12 476,420.832 476,424.192 C476,427.552 473.792,430.288 470.264,430.288 Z M470.264,428.68 C472.736,428.68 474.104,426.568 474.104,424.192 C474.104,421.84 472.736,419.728 470.264,419.728 C467.792,419.728 466.424,421.84 466.424,424.192 C466.424,426.568 467.792,428.68 470.264,428.68 Z M479.84,416.752 C479.168,416.752 478.616,416.224 478.616,415.552 C478.616,414.88 479.168,414.328 479.84,414.328 C480.512,414.328 481.04,414.88 481.04,415.552 C481.04,416.224 480.512,416.752 479.84,416.752 Z M477.296,434.704 C476.12,434.704 475.496,434.416 474.776,433.84 L475.4,432.496 C475.808,432.904 476.336,433.216 477.056,433.216 C478.136,433.216 478.928,432.592 478.928,431.128 L478.928,418.408 L480.728,418.408 L480.728,431.128 C480.728,433.408 479.528,434.704 477.296,434.704 Z M489.584,430.288 C486.128,430.288 483.656,427.816 483.656,424.192 C483.656,420.832 486.056,418.12 489.368,418.12 C492.872,418.12 494.936,420.856 494.936,424.336 L494.936,424.792 L485.576,424.792 C485.72,426.976 487.232,428.8 489.728,428.8 C491.072,428.8 492.392,428.272 493.328,427.312 L494.192,428.488 C493.016,429.64 491.456,430.288 489.584,430.288 Z M493.16,423.448 C493.136,421.744 491.984,419.608 489.344,419.608 C486.872,419.608 485.648,421.696 485.552,423.448 Z M502.952,430.288 C499.496,430.288 497.168,427.624 497.168,424.192 C497.168,420.76 499.496,418.12 502.952,418.12 C505.064,418.12 506.312,418.984 507.2,420.136 L506,421.216 C505.232,420.16 504.248,419.728 503.048,419.728 C500.6,419.728 499.04,421.624 499.04,424.192 C499.04,426.76 500.6,428.68 503.048,428.68 C504.248,428.68 505.232,428.2 506,427.168 L507.2,428.272 C506.312,429.424 505.064,430.288 502.952,430.288 Z M512.696,430.288 C510.968,430.288 510.104,429.304 510.104,427.576 L510.104,419.992 L508.184,419.992 L508.184,418.408 L510.104,418.408 L510.104,415.24 L511.928,415.24 L511.928,418.408 L514.28,418.408 L514.28,419.992 L511.928,419.992 L511.928,427.192 C511.928,428.056 512.312,428.68 513.08,428.68 C513.608,428.68 514.064,428.44 514.304,428.176 L514.832,429.544 C514.376,429.976 513.728,430.288 512.696,430.288 Z M520.496,430.288 C518.576,430.288 516.992,429.688 515.816,428.464 L516.728,427.168 C517.496,428.056 518.96,428.824 520.544,428.824 C522.32,428.824 523.304,427.984 523.304,426.832 C523.304,424.024 516.128,425.752 516.128,421.456 C516.128,419.632 517.664,418.12 520.424,418.12 C522.416,418.12 523.808,418.864 524.72,419.8 L523.88,421.048 C523.184,420.208 521.936,419.584 520.424,419.584 C518.84,419.584 517.856,420.376 517.856,421.408 C517.856,423.928 525.032,422.272 525.032,426.784 C525.032,428.728 523.472,430.288 520.496,430.288 Z M520.496,430.288" id="# of completed respo" fill="#000000"></path>
        <path d="M536.5,423.5 L897.512451,423.5" id="Line" stroke="#D4D4D4" stroke-width="3" stroke-linecap="square" fill="#D8D8D8"></path>
        <path id="Line decoration-1" d="M897.5,423.5 C893.72,422.45 890.48,421.55 886.7,420.5 C886.7,422.6 886.7,424.4 886.7,426.5 C890.48,425.45 893.72,424.55 897.5,423.5 C897.5,423.5 897.5,423.5 897.5,423.5 Z M897.5,423.5" stroke="#D4D4D4" stroke-width="3" stroke-linecap="square" fill="#D8D8D8"></path>
    </g>
</svg>